<?xml version="1.0" encoding="utf-8"?>
<!-- Generator: Adobe Illustrator 22.0.1, SVG Export Plug-In . SVG Version: 6.00 Build 0)  -->
<svg version="1.1" id="Layer_1" xmlns="http://www.w3.org/2000/svg" xmlns:xlink="http://www.w3.org/1999/xlink" x="0px" y="0px"
	 viewBox="0 0 18.3 23.3" style="enable-background:new 0 0 18.3 23.3;" xml:space="preserve">
<g id="Layer_1_1_">
	<title>ic_home</title>
	<desc>Created with Sketch.</desc>
</g>
<g id="Layer_2_1_">
	<path d="M6.9,0c-0.1,0.1-0.4,0.2-1,0.8C5.3,1.4,4.5,2.3,4.2,3.6C4,4.6,4.1,5.4,4.8,7.8c0.4,1.3,0.8,2.9,1.4,4.8
		c-0.3,0.7-0.8,1.7-1.3,2.6c-0.1,0.1-0.3,0.4-0.6,0.5C4,15.7,3.6,15.3,3.4,15c-0.3-0.5-0.1-1-0.1-1.5c0.1-0.7-0.1-0.1,0-2.6
		c0.1-1.3,0.1-2.4,0-4C3.3,6.3,3.3,5.8,2.9,5.4C2.5,5.1,1.9,4.9,1.3,5C0.7,5.1,0.2,5.7,0,6.3c0,1.2,0,2.3,0,3.5c0.1,0,0.6,0,1-0.3
		C1.6,9,1.5,8.1,1.5,8.1c0-0.3-0.1-0.3-0.4-1.3C1,6.2,0.9,6.1,1,6c0.1-0.2,0.7-0.1,1,0.1c0.3,0.1,0.4,0.6,0.4,0.7
		c0.1,0.9,0.1,3.7,0,7.5c-0.1,0.8,0.4,1.4,0.7,1.6c0.5,0.5,1.8,0.8,1.8,0.8s-0.1,0.3-0.1,0.6c-0.1,0.5-0.6,1-1.3,1.1
		c0,1,0,1.9,0,2.8c0.2,0.1,0.6,0.1,0.9,0.4C4.8,22.2,5,23,5,23.2c1,0,2,0,3,0c0.1-0.1,0.2-0.4,0.1-0.7c-0.1-0.1-0.2-0.2-0.8-0.4
		C6.9,22.1,6.4,22,5.9,22c-0.3-0.4-0.7-0.8-1-1.2c-0.2-0.3-0.2-0.7,0-1c0.1-0.2,0.5-0.4,0.7-0.3s0.3,0.2,0.4,0.4
		c0.5,0.7,1.4,0.9,1.6,1c0.3,0.1,1,0.2,1.4-0.1c0.4-0.4,0.2-1,0.2-1.3c-0.1-0.6-0.4-0.7-0.7-1.5c-0.1-0.2-0.4-0.8-0.4-1.5
		c-0.1-0.4-0.2-1.3,0.3-2.3c0.5-1,1.5-1.5,2-1.8c0.5-0.2,1-0.4,1.2-0.4c1.8-0.1,3.5-0.1,5.3-0.1c0.1-0.1,0.4-0.1,0.5-0.3
		c0.4-0.3,0.5-0.7,0.6-0.9c0-1.4,0.1-2.8,0.1-4.1c-0.1,0.1-0.4,0.1-0.6,0.4c-0.1,0.1-0.3,0.3-0.4,0.7c-0.1,0.7-0.1,1.4-0.1,1.5
		c-1.2,0-2.3,0.1-3.5,0.1c0-0.3-0.1-0.8-0.4-1.3c-0.4-0.7-1-1-1.2-1.2c-1-0.6-1.5-0.2-2.3-0.9C9.4,5.3,9.1,4.6,9.1,4.6
		c0.1-0.1,0.2,0.1,0.6,0.2C10,4.9,10.4,5,10.8,4.9c0.3-0.1,0.7-0.2,0.7-0.4c0-0.1-0.2-0.1-0.8-0.4S10.1,3.8,10,3.7
		C9.9,3.4,10,3.1,10,2.9c0.1-0.2,0.1-0.4,0.2-0.5c0.1-0.1,0.4,0,0.7,0.1c0.3,0.1,0.4,0.1,0.7,0.2c0.3,0.1,0.4,0.1,0.4,0
		c0.1-0.1,0-0.5-0.1-0.7c-0.2-0.4-0.7-0.7-0.8-0.7C10.5,0.9,10.1,1,9.3,0.8C7.8,0.5,7.6-0.1,6.9,0z"/>
	<path d="M13,6.1c0.1,0.1,0.4,0.2,0.7,0.4c0.4,0.4,0.6,0.7,0.7,1c0.1,0.4,0.2,0.7,0.2,0.9c1-0.7,1.3-1,1.9-1.4
		c0.2-0.1,0.7-0.4,0.9-0.9c0.2-0.4,0.2-0.9,0.2-1.1c0-0.3-0.1-0.4-0.2-0.7c-0.3-0.7-0.7-1.1-1.4-1.8c-0.2-0.2-0.5-0.6-0.8-1.1
		c-0.1,0.1-0.3,0.1-0.4,0.4c-0.2,0.4-0.1,0.7,0,1c0.2,0.7,0.8,1.2,1,1.3C14.9,4.7,14,5.4,13,6.1z"/>
	<path d="M8.3,15.9c0.3,0.6,0.6,1.2,0.9,1.8c0.1,0,0.4,0,0.7,0c0.4,0.1,0.6,0.3,0.7,0.4c0.4,0.4,0.5,0.8,0.5,1
		c0.1,0.5-0.1,0.9-0.2,1c0.6,1.1,1.2,2.2,1.8,3.3c1.2,0,2.5,0,3.8,0c0-0.1,0-0.4-0.1-0.6s-0.3-0.3-0.4-0.4c-0.1-0.1-0.4-0.2-0.8-0.3
		c-0.4-0.1-0.7,0-0.8,0.1c-0.6-0.9-1.1-1.8-1.7-2.7c0.2-0.3,0.5-0.7,0.9-1.1c0.7-1,1-1.2,1.2-1.8c0.1-0.4,0.3-0.9,0.1-1.3
		c-0.2-0.4-0.7-0.7-1-0.7c-0.7-0.2-1.2-0.1-2,0.1c-0.8,0.2-1.4,0.4-2.3,0.9C8.9,15.6,8.6,15.8,8.3,15.9z"/>
</g>
</svg>
